<svg xmlns="http://www.w3.org/2000/svg" xmlns:xlink="http://www.w3.org/1999/xlink" viewBox="0 0 119.28 39.79"><defs><style>.cls-1{fill:none;}.cls-2{clip-path:url(#clip-path);}.cls-3{fill:#fff;}.cls-4{fill:#fffdfa;}.cls-5{fill:#fffcf5;}.cls-6{fill:#fffaf0;}.cls-7{fill:#fff9ec;}.cls-8{fill:#fff7e7;}.cls-9{fill:#fff5e3;}.cls-10{fill:#fff4df;}.cls-11{fill:#fff3da;}.cls-12{fill:#fff1d6;}.cls-13{fill:#fff0d2;}.cls-14{fill:#ffeece;}.cls-15{fill:#ffedca;}.cls-16{fill:#ffecc7;}.cls-17{fill:#ffebc3;}.cls-18{fill:#ffe9bf;}.cls-19{fill:#ffe8bc;}.cls-20{fill:#ffe7b8;}.cls-21{fill:#ffe6b5;}.cls-22{fill:#ffe5b2;}.cls-23{fill:#ffe4af;}.cls-24{fill:#ffe3ab;}.cls-25{fill:#ffe2a8;}.cls-26{fill:#ffe1a5;}.cls-27{fill:#ffe0a3;}.cls-28{fill:#ffdfa0;}.cls-29{fill:#ffde9d;}.cls-30{fill:#ffdd9a;}.cls-31{fill:#ffdc98;}.cls-32{fill:#ffdb95;}.cls-33{fill:#ffda93;}.cls-34{fill:#ffd990;}.cls-35{fill:#ffd98e;}.cls-36{fill:#ffd88c;}.cls-37{fill:#ffd789;}.cls-38{fill:#ffd687;}.cls-39{fill:#ffd685;}.cls-40{fill:#ffd583;}.cls-41{fill:#ffd481;}.cls-42{fill:#ffd47f;}.cls-43{fill:#ffd37d;}.cls-44{fill:#ffd27b;}.cls-45{fill:#ffd27a;}.cls-46{fill:#ffd178;}.cls-47{fill:#ffd176;}.cls-48{fill:#ffd075;}.cls-49{fill:#ffd073;}.cls-50{fill:#ffcf71;}.cls-51{fill:#ffcf70;}.cls-52{fill:#ffce6e;}.cls-53{fill:#ffce6d;}.cls-54{fill:#ffcd6c;}.cls-55{fill:#ffcd6a;}.cls-56{fill:#ffcc69;}.cls-57{fill:#ffcc68;}.cls-58{fill:#ffcb67;}.cls-59{fill:#ffcb65;}.cls-60{fill:#ffcb64;}.cls-61{fill:#ffca63;}.cls-62{fill:#ffca62;}.cls-63{fill:#ffc961;}.cls-64{fill:#ffc960;}.cls-65{fill:#ffc95f;}.cls-66{fill:#ffc85e;}.cls-67{fill:#ffc85d;}.cls-68{fill:#ffc85c;}.cls-69{fill:#ffc85b;}.cls-70{fill:#ffc75b;}.cls-71{fill:#ffc75a;}.cls-72{fill:#ffc759;}.cls-73{fill:#ffc758;}.cls-74{fill:#ffc658;}.cls-75{fill:#ffc657;}.cls-76{fill:#ffc656;}.cls-77{fill:#ffc555;}.cls-78{fill:#ffc554;}.cls-79{fill:#ffc553;}.cls-80{fill:#ffc452;}.cls-81{fill:#ffc451;}.cls-82{fill:#ffc450;}.cls-83{fill:#ffc34f;}.cls-84{fill:#ffc34e;}.cls-85{fill:#ffc34d;}.cls-86{fill:#ffc24c;}.cls-87{fill:#ffc24b;}.cls-88{fill:#ffc24a;}.cls-89{fill:#ffc149;}.cls-90{fill:#ffc148;}.cls-91{fill:#ffc047;}.cls-92{fill:#ffbf47;}.cls-93{fill:#ffbe46;}.cls-94{fill:#ffbd45;}.cls-95{fill:#ffbc45;}.cls-96{fill:#fb4;}.cls-97{fill:#ffba43;}.cls-98{fill:#ffb943;}.cls-99{fill:#ffb842;}.cls-100{fill:#ffb741;}.cls-101{fill:#ffb640;}.cls-102{fill:#ffb540;}.cls-103{fill:#ffb43f;}.cls-104{fill:#ffb33f;}.cls-105{fill:#ffb33e;}.cls-106{fill:#ffb23d;}.cls-107{fill:#ffb13d;}.cls-108{fill:#ffb03c;}.cls-109{fill:#ffaf3c;}.cls-110{fill:#ffae3b;}.cls-111{fill:#ffad3a;}.cls-112{fill:#ffac3a;}.cls-113{fill:#ffab39;}.cls-114{fill:#ffaa38;}.cls-115{fill:#ffa938;}.cls-116{fill:#ffa837;}.cls-117{fill:#ffa736;}.cls-118{fill:#ffa635;}.cls-119{fill:#ffa535;}.cls-120{fill:#ffa434;}.cls-121{fill:#ffa333;}.cls-122{fill:#ffa233;}.cls-123{fill:#ffa132;}.cls-124{fill:#ffa031;}.cls-125{fill:#ff9f30;}.cls-126{fill:#ff9e30;}.cls-127{fill:#ff9d2f;}.cls-128{fill:#ff9c2e;}.cls-129{fill:#ff9b2e;}.cls-130{fill:#ff9a2d;}.cls-131{fill:#ff992c;}.cls-132{fill:#ff982c;}.cls-133{fill:#ff962b;}.cls-134{fill:#ff952a;}.cls-135{fill:#ff9429;}.cls-136{fill:#ff9329;}.cls-137{fill:#ff9228;}.cls-138{fill:#ff9127;}.cls-139{fill:#ff9027;}.cls-140{fill:#ff8f26;}.cls-141{fill:#ff8e25;}.cls-142{fill:#ff8d24;}.cls-143{fill:#ff8c24;}.cls-144{fill:#ff8b23;}.cls-145{fill:#ff8a22;}.cls-146{fill:#ff8921;}.cls-147{fill:#ff8821;}.cls-148{fill:#ff8620;}.cls-149{fill:#ff851f;}.cls-150{fill:#ff841e;}.cls-151{fill:#ff831e;}.cls-152{fill:#ff821d;}.cls-153{fill:#ff811c;}.cls-154{fill:#ff801b;}.cls-155{fill:#ff7f1a;}.cls-156{fill:#ff7d1a;}.cls-157{fill:#ff7c19;}.cls-158{fill:#ff7b18;}.cls-159{fill:#ff7a17;}.cls-160{fill:#ff7917;}.cls-161{fill:#ff7816;}.cls-162{fill:#ff7715;}.cls-163{fill:#ff7614;}.cls-164{fill:#ff7413;}.cls-165{fill:#ff7313;}.cls-166{fill:#ff7212;}.cls-167{fill:#ff7111;}.cls-168{fill:#ff7010;}.cls-169{fill:#ff6f0f;}.cls-170{fill:#ff6d0f;}.cls-171{fill:#ff6c0e;}.cls-172{fill:#ff6b0d;}.cls-173{fill:#ff6a0c;}.cls-174{fill:#ff690b;}.cls-175{fill:#ff680b;}.cls-176{fill:#ff660a;}.cls-177{fill:#ff6509;}.cls-178{fill:#ff6408;}.cls-179{fill:#ff6307;}.cls-180{fill:#ff6207;}.cls-181{fill:#ff6006;}.cls-182{fill:#ff5f05;}.cls-183{fill:#ff5e04;}.cls-184{fill:#ff5d03;}.cls-185{fill:#ff5c02;}.cls-186{fill:#ff5a02;}.cls-187{fill:#ff5901;}.cls-188{fill:#ff5800;}</style><clipPath id="clip-path"><path class="cls-1" d="M31.34,13c0,1.26,0,2.75,0,4.23,0,1-.46,1.26-1.27.65-4.25-3.18-12.3-1.09-15.55,3.17-1.65,2.15-2.79,4.48-1.56,7.2S16.66,32,19.47,32c5,.11,9.27-1.68,11.86-6.18,1.78-3.08,1.7-6.67,2-10.1.26-3.14.34-6.29.41-9.44a1.94,1.94,0,0,1,1.79-2.14,30.78,30.78,0,0,0,6.55-2c1.16-.54,1.43,0,1.32,1.07Q42.05,17.17,40.74,31.1c-.15,1.53-.28,3.07-.48,4.6a4.15,4.15,0,0,1-4.5,4c-4.26-.18-8.51-.54-12.76-.86s-8.49-.73-12.75-1c-3.92-.24-5.21-1.4-5.88-5.24C3.28,26.32,2.08,20.07.9,13.82c-.9-4.8.24-6.59,5-7.77Q17,3.28,28.18.5c2-.5,2.2-.33,2.41,1.74A83,83,0,0,1,31.34,13Z"/></clipPath></defs><title>logo</title><g id="Layer_2" data-name="Layer 2"><g id="Layer_1-2" data-name="Layer 1"><g class="cls-2"><polygon class="cls-3" points="8.78 0 0 9.05 0 0 8.78 0"/><polygon class="cls-3" points="8.91 0 0 9.2 0 9.05 8.78 0 8.91 0"/><polygon class="cls-4" points="9.05 0 0 9.34 0 9.2 8.91 0 9.05 0"/><polygon class="cls-5" points="9.19 0 0 9.48 0 9.34 9.05 0 9.19 0"/><polygon class="cls-6" points="9.32 0 0 9.62 0 9.48 9.19 0 9.32 0"/><polygon class="cls-7" points="9.46 0 0 9.76 0 9.62 9.32 0 9.46 0"/><polygon class="cls-8" points="9.6 0 0 9.9 0 9.76 9.46 0 9.6 0"/><polygon class="cls-9" points="9.73 0 0 10.04 0 9.9 9.6 0 9.73 0"/><polygon class="cls-10" points="9.87 0 0 10.19 0 10.04 9.73 0 9.87 0"/><polygon class="cls-11" points="10.01 0 0 10.33 0 10.19 9.87 0 10.01 0"/><polygon class="cls-12" points="10.14 0 0 10.47 0 10.33 10.01 0 10.14 0"/><polygon class="cls-13" points="10.28 0 0 10.61 0 10.47 10.14 0 10.28 0"/><polygon class="cls-14" points="10.42 0 0 10.75 0 10.61 10.28 0 10.42 0"/><polygon class="cls-15" points="10.56 0 0 10.89 0 10.75 10.42 0 10.56 0"/><polygon class="cls-16" points="10.69 0 0 11.03 0 10.89 10.56 0 10.69 0"/><polygon class="cls-17" points="10.83 0 0 11.18 0 11.03 10.69 0 10.83 0"/><polygon class="cls-18" points="10.97 0 0 11.32 0 11.18 10.83 0 10.97 0"/><polygon class="cls-19" points="11.1 0 0 11.46 0 11.32 10.97 0 11.1 0"/><polygon class="cls-20" points="11.24 0 0 11.6 0 11.46 11.1 0 11.24 0"/><polygon class="cls-21" points="11.38 0 0 11.74 0 11.6 11.24 0 11.38 0"/><polygon class="cls-22" points="11.52 0 0 11.88 0 11.74 11.38 0 11.52 0"/><polygon class="cls-23" points="11.65 0 0 12.02 0 11.88 11.52 0 11.65 0"/><polygon class="cls-24" points="11.79 0 0 12.16 0 12.02 11.65 0 11.79 0"/><polygon class="cls-25" points="11.93 0 0 12.31 0 12.16 11.79 0 11.93 0"/><polygon class="cls-26" points="12.06 0 0 12.45 0 12.31 11.93 0 12.06 0"/><polygon class="cls-27" points="12.2 0 0 12.59 0 12.45 12.06 0 12.2 0"/><polygon class="cls-28" points="12.34 0 0 12.73 0 12.59 12.2 0 12.34 0"/><polygon class="cls-29" points="12.47 0 0 12.87 0 12.73 12.34 0 12.47 0"/><polygon class="cls-30" points="12.61 0 0 13.01 0 12.87 12.47 0 12.61 0"/><polygon class="cls-31" points="12.75 0 0 13.15 0 13.01 12.61 0 12.75 0"/><polygon class="cls-32" points="12.88 0 0 13.29 0 13.15 12.75 0 12.88 0"/><polygon class="cls-33" points="13.02 0 0 13.44 0 13.29 12.88 0 13.02 0"/><polygon class="cls-34" points="13.16 0 0 13.58 0 13.44 13.02 0 13.16 0"/><polygon class="cls-35" points="13.3 0 0 13.72 0 13.58 13.16 0 13.3 0"/><polygon class="cls-36" points="13.43 0 0 13.86 0 13.72 13.3 0 13.43 0"/><polygon class="cls-37" points="13.57 0 0 14 0 13.86 13.43 0 13.57 0"/><polygon class="cls-38" points="13.71 0 0 14.14 0 14 13.57 0 13.71 0"/><polygon class="cls-39" points="13.84 0 0 14.29 0 14.14 13.71 0 13.84 0"/><polygon class="cls-40" points="13.98 0 0 14.43 0 14.29 13.84 0 13.98 0"/><polygon class="cls-41" points="14.12 0 0 14.57 0 14.43 13.98 0 14.12 0"/><polygon class="cls-42" points="14.26 0 0 14.71 0 14.57 14.12 0 14.26 0"/><polygon class="cls-43" points="14.39 0 0 14.85 0 14.71 14.26 0 14.39 0"/><polygon class="cls-44" points="14.53 0 0 14.99 0 14.85 14.39 0 14.53 0"/><polygon class="cls-45" points="14.67 0 0 15.13 0 14.99 14.53 0 14.67 0"/><polygon class="cls-46" points="14.8 0 0 15.27 0 15.13 14.67 0 14.8 0"/><polygon class="cls-47" points="14.94 0 0 15.42 0 15.27 14.8 0 14.94 0"/><polygon class="cls-48" points="15.08 0 0 15.56 0 15.42 14.94 0 15.08 0"/><polygon class="cls-49" points="15.21 0 0 15.7 0 15.56 15.08 0 15.21 0"/><polygon class="cls-50" points="15.35 0 0 15.84 0 15.7 15.21 0 15.35 0"/><polygon class="cls-51" points="15.49 0 0 15.98 0 15.84 15.35 0 15.49 0"/><polygon class="cls-52" points="15.63 0 0 16.12 0 15.98 15.49 0 15.63 0"/><polygon class="cls-53" points="15.76 0 0 16.26 0 16.12 15.63 0 15.76 0"/><polygon class="cls-54" points="15.9 0 0 16.41 0 16.26 15.76 0 15.9 0"/><polygon class="cls-55" points="16.04 0 0 16.55 0 16.41 15.9 0 16.04 0"/><polygon class="cls-56" points="16.17 0 0 16.69 0 16.55 16.04 0 16.17 0"/><polygon class="cls-57" points="16.31 0 0 16.83 0 16.69 16.17 0 16.31 0"/><polygon class="cls-58" points="16.45 0 0 16.97 0 16.83 16.31 0 16.45 0"/><polygon class="cls-59" points="16.58 0 0 17.11 0 16.97 16.45 0 16.58 0"/><polygon class="cls-60" points="16.72 0 0 17.25 0 17.11 16.58 0 16.72 0"/><polygon class="cls-61" points="16.86 0 0 17.39 0 17.25 16.72 0 16.86 0"/><polygon class="cls-62" points="16.99 0 0 17.54 0 17.39 16.86 0 16.99 0"/><polygon class="cls-63" points="17.13 0 0 17.68 0 17.54 16.99 0 17.13 0"/><polygon class="cls-64" points="17.27 0 0 17.82 0 17.68 17.13 0 17.27 0"/><polygon class="cls-65" points="17.41 0 0 17.96 0 17.82 17.27 0 17.41 0"/><polygon class="cls-66" points="17.54 0 0 18.1 0 17.96 17.41 0 17.54 0"/><polygon class="cls-67" points="17.68 0 0 18.24 0 18.1 17.54 0 17.68 0"/><polygon class="cls-68" points="17.82 0 0 18.38 0 18.24 17.68 0 17.82 0"/><polygon class="cls-69" points="17.95 0 0 18.52 0 18.38 17.82 0 17.95 0"/><polygon class="cls-70" points="18.09 0 0 18.67 0 18.52 17.95 0 18.09 0"/><polygon class="cls-71" points="18.23 0 0 18.81 0 18.67 18.09 0 18.23 0"/><polygon class="cls-72" points="18.36 0 0 18.95 0 18.81 18.23 0 18.36 0"/><polygon class="cls-73" points="18.5 0 0 19.09 0 18.95 18.36 0 18.5 0"/><polygon class="cls-74" points="18.64 0 0 19.23 0 19.09 18.5 0 18.64 0"/><polygon class="cls-75" points="18.77 0 0 19.37 0 19.23 18.64 0 18.77 0"/><polygon class="cls-76" points="18.91 0 0 19.52 0 19.37 18.77 0 18.91 0"/><polygon class="cls-76" points="19.05 0 0 19.66 0 19.52 18.91 0 19.05 0"/><polygon class="cls-77" points="19.19 0 0 19.8 0 19.66 19.05 0 19.19 0"/><polygon class="cls-78" points="19.32 0 0 19.94 0 19.8 19.19 0 19.32 0"/><polygon class="cls-78" points="19.46 0 0 20.08 0 19.94 19.32 0 19.46 0"/><polygon class="cls-79" points="19.6 0 0 20.22 0 20.08 19.46 0 19.6 0"/><polygon class="cls-79" points="19.73 0 0 20.36 0 20.22 19.6 0 19.73 0"/><polygon class="cls-80" points="19.87 0 0 20.5 0 20.36 19.73 0 19.87 0"/><polygon class="cls-80" points="20.01 0 0 20.65 0 20.5 19.87 0 20.01 0"/><polygon class="cls-81" points="20.14 0 0 20.79 0 20.65 20.01 0 20.14 0"/><polygon class="cls-81" points="20.28 0 0 20.93 0 20.79 20.14 0 20.28 0"/><polygon class="cls-82" points="20.42 0 0 21.07 0 20.93 20.28 0 20.42 0"/><polygon class="cls-82" points="20.56 0 0 21.21 0 21.07 20.42 0 20.56 0"/><polygon class="cls-82" points="20.69 0 0 21.35 0 21.21 20.56 0 20.69 0"/><polygon class="cls-83" points="20.83 0 0 21.49 0 21.35 20.69 0 20.83 0"/><polygon class="cls-83" points="20.97 0 0 21.64 0 21.49 20.83 0 20.97 0"/><polygon class="cls-84" points="21.1 0 0 21.78 0 21.64 20.97 0 21.1 0"/><polygon class="cls-84" points="21.24 0 0 21.92 0 21.78 21.1 0 21.24 0"/><polygon class="cls-84" points="21.38 0 0 22.06 0 21.92 21.24 0 21.38 0"/><polygon class="cls-85" points="21.52 0 0 22.2 0 22.06 21.38 0 21.52 0"/><polygon class="cls-85" points="21.65 0 0 22.34 0 22.2 21.52 0 21.65 0"/><polygon class="cls-85" points="21.79 0 0 22.48 0 22.34 21.65 0 21.79 0"/><polygon class="cls-85" points="21.93 0 0 22.63 0 22.48 21.79 0 21.93 0"/><polygon class="cls-86" points="22.06 0 0 22.77 0 22.63 21.93 0 22.06 0"/><polygon class="cls-86" points="22.2 0 0 22.91 0 22.77 22.06 0 22.2 0"/><polygon class="cls-86" points="22.34 0 0 23.05 0 22.91 22.2 0 22.34 0"/><polygon class="cls-86" points="22.47 0 0 23.19 0 23.05 22.34 0 22.47 0"/><polygon class="cls-87" points="22.61 0 0 23.33 0 23.19 22.47 0 22.61 0"/><polygon class="cls-87" points="22.75 0 0 23.47 0 23.33 22.61 0 22.75 0"/><polygon class="cls-87" points="22.89 0 0 23.61 0 23.47 22.75 0 22.89 0"/><polygon class="cls-87" points="23.02 0 0 23.76 0 23.61 22.89 0 23.02 0"/><polygon class="cls-87" points="23.16 0 0 23.9 0 23.76 23.02 0 23.16 0"/><polygon class="cls-87" points="23.3 0 0 24.04 0 23.9 23.16 0 23.3 0"/><polygon class="cls-88" points="23.43 0 0 24.18 0 24.04 23.3 0 23.43 0"/><polygon class="cls-88" points="23.57 0 0 24.32 0 24.18 23.43 0 23.57 0"/><polygon class="cls-88" points="23.71 0 0 24.46 0 24.32 23.57 0 23.71 0"/><polygon class="cls-88" points="23.84 0 0 24.6 0 24.46 23.71 0 23.84 0"/><polygon class="cls-88" points="23.98 0 0 24.75 0 24.6 23.84 0 23.98 0"/><polygon class="cls-88" points="24.12 0 0 24.89 0 24.75 23.98 0 24.12 0"/><polygon class="cls-88" points="24.25 0 0 25.03 0 24.89 24.12 0 24.25 0"/><polygon class="cls-89" points="24.39 0 0 25.17 0 25.03 24.25 0 24.39 0"/><polygon class="cls-89" points="24.53 0 0 25.31 0 25.17 24.39 0 24.53 0"/><polygon class="cls-89" points="24.67 0 0 25.45 0 25.31 24.53 0 24.67 0"/><polygon class="cls-89" points="24.8 0 0 25.59 0 25.45 24.67 0 24.8 0"/><polygon class="cls-89" points="24.94 0 0 25.73 0 25.59 24.8 0 24.94 0"/><polygon class="cls-89" points="25.08 0 0 25.88 0 25.73 24.94 0 25.08 0"/><polygon class="cls-89" points="25.21 0 0 26.02 0 25.88 25.08 0 25.21 0"/><polygon class="cls-89" points="25.35 0 0 26.16 0 26.02 25.21 0 25.35 0"/><polygon class="cls-89" points="25.49 0 0 26.3 0 26.16 25.35 0 25.49 0"/><polygon class="cls-89" points="25.63 0 0 26.44 0 26.3 25.49 0 25.63 0"/><polygon class="cls-89" points="25.76 0 0 26.58 0 26.44 25.63 0 25.76 0"/><polygon class="cls-89" points="25.9 0 0 26.72 0 26.58 25.76 0 25.9 0"/><polygon class="cls-89" points="26.04 0 0 26.86 0 26.72 25.9 0 26.04 0"/><polygon class="cls-89" points="26.17 0 0 27.01 0 26.86 26.04 0 26.17 0"/><polygon class="cls-90" points="26.31 0 0 27.15 0 27.01 26.17 0 26.31 0"/><polygon class="cls-90" points="26.45 0 0 27.29 0 27.15 26.31 0 26.45 0"/><polygon class="cls-90" points="26.58 0 0 27.43 0 27.29 26.45 0 26.58 0"/><polygon class="cls-90" points="26.72 0 0 27.57 0 27.43 26.58 0 26.72 0"/><polygon class="cls-90" points="26.86 0 0 27.71 0 27.57 26.72 0 26.86 0"/><polygon class="cls-90" points="27 0 0 27.86 0 27.71 26.86 0 27 0"/><polygon class="cls-90" points="27.13 0 0 28 0 27.86 27 0 27.13 0"/><polygon class="cls-90" points="27.27 0 0 28.14 0 28 27.13 0 27.27 0"/><polygon class="cls-90" points="27.41 0 0 28.28 0 28.14 27.27 0 27.41 0"/><polygon class="cls-90" points="27.54 0 0 28.42 0 28.28 27.41 0 27.54 0"/><polygon class="cls-90" points="27.68 0 0 28.56 0 28.42 27.54 0 27.68 0"/><polygon class="cls-90" points="27.82 0 0 28.7 0 28.56 27.68 0 27.82 0"/><polygon class="cls-90" points="27.95 0 0 28.84 0 28.7 27.82 0 27.95 0"/><polygon class="cls-90" points="28.09 0 0 28.99 0 28.84 27.95 0 28.09 0"/><polygon class="cls-90" points="28.23 0 0 29.13 0 28.99 28.09 0 28.23 0"/><polygon class="cls-90" points="28.36 0 0 29.27 0 29.13 28.23 0 28.36 0"/><polygon class="cls-90" points="28.5 0 0 29.41 0 29.27 28.36 0 28.5 0"/><polygon class="cls-90" points="28.64 0 0 29.55 0 29.41 28.5 0 28.64 0"/><polygon class="cls-90" points="28.77 0 0 29.69 0 29.55 28.64 0 28.77 0"/><polygon class="cls-90" points="28.91 0 0 29.83 0 29.69 28.77 0 28.91 0"/><polygon class="cls-90" points="29.05 0 0 29.98 0 29.83 28.91 0 29.05 0"/><polygon class="cls-90" points="29.19 0 0 30.12 0 29.98 29.05 0 29.19 0"/><polygon class="cls-90" points="29.32 0 0 30.26 0 30.12 29.19 0 29.32 0"/><polygon class="cls-90" points="29.46 0 0 30.4 0 30.26 29.32 0 29.46 0"/><polygon class="cls-90" points="29.6 0 0 30.54 0 30.4 29.46 0 29.6 0"/><polygon class="cls-90" points="29.73 0 0 30.68 0 30.54 29.6 0 29.73 0"/><polygon class="cls-90" points="29.87 0 0 30.82 0 30.68 29.73 0 29.87 0"/><polygon class="cls-90" points="30.01 0 0 30.96 0 30.82 29.87 0 30.01 0"/><polygon class="cls-90" points="30.14 0 0 31.11 0 30.96 30.01 0 30.14 0"/><polygon class="cls-90" points="30.28 0 0 31.25 0 31.11 30.14 0 30.28 0"/><polygon class="cls-90" points="30.42 0 0 31.39 0 31.25 30.28 0 30.42 0"/><polygon class="cls-90" points="30.56 0 0 31.53 0 31.39 30.42 0 30.56 0"/><polygon class="cls-90" points="30.69 0 0 31.67 0 31.53 30.56 0 30.69 0"/><polygon class="cls-90" points="30.83 0 0 31.81 0 31.67 30.69 0 30.83 0"/><polygon class="cls-90" points="30.97 0 0 31.95 0 31.81 30.83 0 30.97 0"/><polygon class="cls-90" points="31.1 0 0 32.09 0 31.95 30.97 0 31.1 0"/><polygon class="cls-90" points="31.24 0 0 32.24 0 32.09 31.1 0 31.24 0"/><polygon class="cls-90" points="31.38 0 0 32.38 0 32.24 31.24 0 31.38 0"/><polygon class="cls-90" points="31.52 0 0 32.52 0 32.38 31.38 0 31.52 0"/><polygon class="cls-90" points="31.65 0 0 32.66 0 32.52 31.52 0 31.65 0"/><polygon class="cls-90" points="31.79 0 0 32.8 0 32.66 31.65 0 31.79 0"/><polygon class="cls-90" points="31.93 0 0 32.94 0 32.8 31.79 0 31.93 0"/><polygon class="cls-90" points="32.06 0 0 33.09 0 32.94 31.93 0 32.06 0"/><polygon class="cls-90" points="32.2 0 0 33.23 0 33.09 32.06 0 32.2 0"/><polygon class="cls-90" points="32.34 0 0 33.37 0 33.23 32.2 0 32.34 0"/><polygon class="cls-90" points="32.47 0 0 33.51 0 33.37 32.34 0 32.47 0"/><polygon class="cls-90" points="32.61 0 0 33.65 0 33.51 32.47 0 32.61 0"/><polygon class="cls-90" points="32.75 0 0 33.79 0 33.65 32.61 0 32.75 0"/><polygon class="cls-90" points="32.88 0 0 33.93 0 33.79 32.75 0 32.88 0"/><polygon class="cls-90" points="33.02 0 0 34.07 0 33.93 32.88 0 33.02 0"/><polygon class="cls-90" points="33.16 0 0 34.22 0 34.07 33.02 0 33.16 0"/><polygon class="cls-90" points="33.3 0 0.01 34.34 0 34.33 0 34.22 33.16 0 33.3 0"/><polygon class="cls-90" points="33.43 0 0.08 34.41 0.01 34.34 33.3 0 33.43 0"/><polygon class="cls-90" points="33.57 0 0.15 34.48 0.08 34.41 33.43 0 33.57 0"/><polygon class="cls-90" points="33.71 0 0.23 34.55 0.15 34.48 33.57 0 33.71 0"/><polygon class="cls-90" points="33.84 0 0.3 34.62 0.23 34.55 33.71 0 33.84 0"/><polygon class="cls-90" points="34.14 0 0.45 34.77 0.3 34.62 33.84 0 34.14 0"/><polygon class="cls-90" points="34.44 0 0.6 34.91 0.45 34.77 34.14 0 34.44 0"/><polygon class="cls-91" points="34.74 0 0.76 35.06 0.6 34.91 34.44 0 34.74 0"/><polygon class="cls-91" points="35.03 0 0.91 35.21 0.76 35.06 34.74 0 35.03 0"/><polygon class="cls-92" points="35.33 0 1.06 35.36 0.91 35.21 35.03 0 35.33 0"/><polygon class="cls-93" points="35.63 0 1.22 35.51 1.06 35.36 35.33 0 35.63 0"/><polygon class="cls-93" points="35.93 0 1.37 35.66 1.22 35.51 35.63 0 35.93 0"/><polygon class="cls-94" points="36.22 0 1.52 35.81 1.37 35.66 35.93 0 36.22 0"/><polygon class="cls-95" points="36.52 0 1.68 35.95 1.52 35.81 36.22 0 36.52 0"/><polygon class="cls-96" points="36.82 0 1.83 36.1 1.68 35.95 36.52 0 36.82 0"/><polygon class="cls-96" points="37.12 0 1.98 36.25 1.83 36.1 36.82 0 37.12 0"/><polygon class="cls-97" points="37.41 0 2.14 36.4 1.98 36.25 37.12 0 37.41 0"/><polygon class="cls-98" points="37.71 0 2.29 36.55 2.14 36.4 37.41 0 37.71 0"/><polygon class="cls-99" points="38.01 0 2.44 36.7 2.29 36.55 37.71 0 38.01 0"/><polygon class="cls-99" points="38.31 0 2.6 36.85 2.44 36.7 38.01 0 38.31 0"/><polygon class="cls-100" points="38.6 0 2.75 36.99 2.6 36.85 38.31 0 38.6 0"/><polygon class="cls-101" points="38.9 0 2.9 37.14 2.75 36.99 38.6 0 38.9 0"/><polygon class="cls-102" points="39.2 0 3.06 37.29 2.9 37.14 38.9 0 39.2 0"/><polygon class="cls-103" points="39.5 0 3.21 37.44 3.06 37.29 39.2 0 39.5 0"/><polygon class="cls-104" points="39.79 0 3.36 37.59 3.21 37.44 39.5 0 39.79 0"/><polygon class="cls-105" points="40.09 0 3.52 37.74 3.36 37.59 39.79 0 40.09 0"/><polygon class="cls-106" points="40.39 0 3.67 37.89 3.52 37.74 40.09 0 40.39 0"/><polygon class="cls-107" points="40.69 0 3.82 38.04 3.67 37.89 40.39 0 40.69 0"/><polygon class="cls-108" points="40.98 0 3.98 38.18 3.82 38.04 40.69 0 40.98 0"/><polygon class="cls-109" points="41.28 0 4.13 38.33 3.98 38.18 40.98 0 41.28 0"/><polygon class="cls-110" points="41.58 0 4.28 38.48 4.13 38.33 41.28 0 41.58 0"/><polygon class="cls-111" points="41.88 0 4.44 38.63 4.28 38.48 41.58 0 41.88 0"/><polygon class="cls-112" points="42.17 0 4.59 38.78 4.44 38.63 41.88 0 42.17 0"/><polygon class="cls-113" points="42.47 0 4.75 38.93 4.59 38.78 42.17 0 42.47 0"/><polygon class="cls-114" points="42.77 0 4.9 39.08 4.75 38.93 42.47 0 42.77 0"/><polygon class="cls-115" points="43.06 0 5.05 39.23 4.9 39.08 42.77 0 43.06 0"/><polygon class="cls-116" points="43.36 0 5.21 39.37 5.05 39.23 43.06 0 43.36 0"/><polygon class="cls-116" points="43.51 0.16 5.36 39.52 5.21 39.37 43.36 0 43.51 0 43.51 0.16"/><polygon class="cls-117" points="43.51 0.47 5.51 39.67 5.36 39.52 43.51 0.16 43.51 0.47"/><polygon class="cls-118" points="43.51 0.77 5.7 39.79 5.63 39.79 5.51 39.67 43.51 0.47 43.51 0.77"/><polygon class="cls-119" points="43.51 1.08 5.99 39.79 5.7 39.79 43.51 0.77 43.51 1.08"/><polygon class="cls-120" points="43.51 1.39 6.29 39.79 5.99 39.79 43.51 1.08 43.51 1.39"/><polygon class="cls-121" points="43.51 1.69 6.59 39.79 6.29 39.79 43.51 1.39 43.51 1.69"/><polygon class="cls-122" points="43.51 2 6.89 39.79 6.59 39.79 43.51 1.69 43.51 2"/><polygon class="cls-123" points="43.51 2.31 7.18 39.79 6.89 39.79 43.51 2 43.51 2.31"/><polygon class="cls-124" points="43.51 2.62 7.48 39.79 7.18 39.79 43.51 2.31 43.51 2.62"/><polygon class="cls-125" points="43.51 2.92 7.78 39.79 7.48 39.79 43.51 2.62 43.51 2.92"/><polygon class="cls-126" points="43.51 3.23 8.08 39.79 7.78 39.79 43.51 2.92 43.51 3.23"/><polygon class="cls-127" points="43.51 3.54 8.37 39.79 8.08 39.79 43.51 3.23 43.51 3.54"/><polygon class="cls-128" points="43.51 3.84 8.67 39.79 8.37 39.79 43.51 3.54 43.51 3.84"/><polygon class="cls-129" points="43.51 4.15 8.97 39.79 8.67 39.79 43.51 3.84 43.51 4.15"/><polygon class="cls-130" points="43.51 4.46 9.27 39.79 8.97 39.79 43.51 4.15 43.51 4.46"/><polygon class="cls-131" points="43.51 4.76 9.56 39.79 9.27 39.79 43.51 4.46 43.51 4.76"/><polygon class="cls-132" points="43.51 5.07 9.86 39.79 9.56 39.79 43.51 4.76 43.51 5.07"/><polygon class="cls-133" points="43.51 5.38 10.16 39.79 9.86 39.79 43.51 5.07 43.51 5.38"/><polygon class="cls-134" points="43.51 5.68 10.46 39.79 10.16 39.79 43.51 5.38 43.51 5.68"/><polygon class="cls-135" points="43.51 5.99 10.75 39.79 10.46 39.79 43.51 5.68 43.51 5.99"/><polygon class="cls-136" points="43.51 6.3 11.05 39.79 10.75 39.79 43.51 5.99 43.51 6.3"/><polygon class="cls-137" points="43.51 6.61 11.35 39.79 11.05 39.79 43.51 6.3 43.51 6.61"/><polygon class="cls-138" points="43.51 6.91 11.64 39.79 11.35 39.79 43.51 6.61 43.51 6.91"/><polygon class="cls-139" points="43.51 7.22 11.94 39.79 11.64 39.79 43.51 6.91 43.51 7.22"/><polygon class="cls-140" points="43.51 7.53 12.24 39.79 11.94 39.79 43.51 7.22 43.51 7.53"/><polygon class="cls-141" points="43.51 7.83 12.54 39.79 12.24 39.79 43.51 7.53 43.51 7.83"/><polygon class="cls-142" points="43.51 8.14 12.84 39.79 12.54 39.79 43.51 7.83 43.51 8.14"/><polygon class="cls-143" points="43.51 8.45 13.13 39.79 12.84 39.79 43.51 8.14 43.51 8.45"/><polygon class="cls-144" points="43.51 8.75 13.43 39.79 13.13 39.79 43.51 8.45 43.51 8.75"/><polygon class="cls-145" points="43.51 9.06 13.73 39.79 13.43 39.79 43.51 8.75 43.51 9.06"/><polygon class="cls-146" points="43.51 9.37 14.03 39.79 13.73 39.79 43.51 9.06 43.51 9.37"/><polygon class="cls-147" points="43.51 9.67 14.32 39.79 14.03 39.79 43.51 9.37 43.51 9.67"/><polygon class="cls-148" points="43.51 9.98 14.62 39.79 14.32 39.79 43.51 9.67 43.51 9.98"/><polygon class="cls-149" points="43.51 10.29 14.92 39.79 14.62 39.79 43.51 9.98 43.51 10.29"/><polygon class="cls-150" points="43.51 10.6 15.21 39.79 14.92 39.79 43.51 10.29 43.51 10.6"/><polygon class="cls-151" points="43.51 10.9 15.51 39.79 15.21 39.79 43.51 10.6 43.51 10.9"/><polygon class="cls-152" points="43.51 11.21 15.81 39.79 15.51 39.79 43.51 10.9 43.51 11.21"/><polygon class="cls-153" points="43.51 11.52 16.11 39.79 15.81 39.79 43.51 11.21 43.51 11.52"/><polygon class="cls-154" points="43.51 11.82 16.41 39.79 16.11 39.79 43.51 11.52 43.51 11.82"/><polygon class="cls-155" points="43.51 12.13 16.7 39.79 16.41 39.79 43.51 11.82 43.51 12.13"/><polygon class="cls-156" points="43.51 12.44 17 39.79 16.7 39.79 43.51 12.13 43.51 12.44"/><polygon class="cls-157" points="43.51 12.74 17.3 39.79 17 39.79 43.51 12.44 43.51 12.74"/><polygon class="cls-158" points="43.51 13.05 17.59 39.79 17.3 39.79 43.51 12.74 43.51 13.05"/><polygon class="cls-159" points="43.51 13.36 17.89 39.79 17.59 39.79 43.51 13.05 43.51 13.36"/><polygon class="cls-160" points="43.51 13.66 18.19 39.79 17.89 39.79 43.51 13.36 43.51 13.66"/><polygon class="cls-161" points="43.51 13.97 18.49 39.79 18.19 39.79 43.51 13.66 43.51 13.97"/><polygon class="cls-162" points="43.51 14.28 18.78 39.79 18.49 39.79 43.51 13.97 43.51 14.28"/><polygon class="cls-163" points="43.51 14.59 19.08 39.79 18.78 39.79 43.51 14.28 43.51 14.59"/><polygon class="cls-164" points="43.51 14.89 19.38 39.79 19.08 39.79 43.51 14.59 43.51 14.89"/><polygon class="cls-165" points="43.51 15.2 19.68 39.79 19.38 39.79 43.51 14.89 43.51 15.2"/><polygon class="cls-166" points="43.51 15.51 19.97 39.79 19.68 39.79 43.51 15.2 43.51 15.51"/><polygon class="cls-167" points="43.51 15.81 20.27 39.79 19.97 39.79 43.51 15.51 43.51 15.81"/><polygon class="cls-168" points="43.51 16.12 20.57 39.79 20.27 39.79 43.51 15.81 43.51 16.12"/><polygon class="cls-169" points="43.51 16.43 20.87 39.79 20.57 39.79 43.51 16.12 43.51 16.43"/><polygon class="cls-170" points="43.51 16.73 21.16 39.79 20.87 39.79 43.51 16.43 43.51 16.73"/><polygon class="cls-171" points="43.51 17.04 21.46 39.79 21.16 39.79 43.51 16.73 43.51 17.04"/><polygon class="cls-172" points="43.51 17.35 21.76 39.79 21.46 39.79 43.51 17.04 43.51 17.35"/><polygon class="cls-173" points="43.51 17.65 22.06 39.79 21.76 39.79 43.51 17.35 43.51 17.65"/><polygon class="cls-174" points="43.51 17.96 22.35 39.79 22.06 39.79 43.51 17.65 43.51 17.96"/><polygon class="cls-175" points="43.51 18.27 22.65 39.79 22.35 39.79 43.51 17.96 43.51 18.27"/><polygon class="cls-176" points="43.51 18.57 22.95 39.79 22.65 39.79 43.51 18.27 43.51 18.57"/><polygon class="cls-177" points="43.51 18.88 23.25 39.79 22.95 39.79 43.51 18.57 43.51 18.88"/><polygon class="cls-178" points="43.51 19.19 23.54 39.79 23.25 39.79 43.51 18.88 43.51 19.19"/><polygon class="cls-179" points="43.51 19.5 23.84 39.79 23.54 39.79 43.51 19.19 43.51 19.5"/><polygon class="cls-180" points="43.51 19.8 24.14 39.79 23.84 39.79 43.51 19.5 43.51 19.8"/><polygon class="cls-181" points="43.51 20.11 24.44 39.79 24.14 39.79 43.51 19.8 43.51 20.11"/><polygon class="cls-182" points="43.51 20.42 24.73 39.79 24.44 39.79 43.51 20.11 43.51 20.42"/><polygon class="cls-183" points="43.51 20.72 25.03 39.79 24.73 39.79 43.51 20.42 43.51 20.72"/><polygon class="cls-184" points="43.51 21.03 25.33 39.79 25.03 39.79 43.51 20.72 43.51 21.03"/><polygon class="cls-185" points="43.51 21.34 25.63 39.79 25.33 39.79 43.51 21.03 43.51 21.34"/><polygon class="cls-186" points="43.51 21.64 25.92 39.79 25.63 39.79 43.51 21.34 43.51 21.64"/><polygon class="cls-187" points="43.51 21.95 26.22 39.79 25.92 39.79 43.51 21.64 43.51 21.95"/><polygon class="cls-188" points="43.51 22.26 26.52 39.79 26.22 39.79 43.51 21.95 43.51 22.26"/><polygon class="cls-188" points="26.52 39.79 43.51 22.26 43.51 39.79 26.52 39.79"/></g><path d="M54.88,4.72h4.57a.62.62,0,0,1,.61.53l5.5,18.14a.49.49,0,0,1-.15.38.45.45,0,0,1-.35.14H61.49a.55.55,0,0,1-.58-.49l-.64-2.09H54l-.61,2.09a.55.55,0,0,1-.58.49H49.28a.54.54,0,0,1-.37-.13.5.5,0,0,1-.16-.39L54.27,5.25A.62.62,0,0,1,54.88,4.72Zm2.28,6.09L55.3,17H59Z"/><path d="M79.92,9.56V22.84c0,.45-.83.78-2.5,1a33.9,33.9,0,0,1-4,.32,6.39,6.39,0,0,1-4.77-1.66C67.56,21.39,67,19.36,67,16.42V9.56a.44.44,0,0,1,.16-.37.52.52,0,0,1,.36-.14h3.78a.57.57,0,0,1,.37.14.47.47,0,0,1,.15.37v9c.08,1,.72,1.55,1.92,1.55l1.34-.21V9.56a.44.44,0,0,1,.16-.37.52.52,0,0,1,.36-.14H79.4a.52.52,0,0,1,.36.14A.44.44,0,0,1,79.92,9.56Z"/><path d="M90.85,9.35V5.25a.51.51,0,0,1,.51-.53h3.78a.54.54,0,0,1,.36.14.5.5,0,0,1,.16.39V22.84q0,.68-2.52,1a34.05,34.05,0,0,1-4,.32A6.06,6.06,0,0,1,84.4,22.3C83.3,21.07,82.75,19,82.75,16a9.85,9.85,0,0,1,.55-3.46,5.37,5.37,0,0,1,1.42-2.23,6,6,0,0,1,1.81-1.12,5.47,5.47,0,0,1,1.91-.35A5.15,5.15,0,0,1,90.85,9.35Zm0,10.58V13a5.15,5.15,0,0,0-1.38-.21c-1.2,0-1.82.53-1.85,1.58,0,.75-.06,1.41-.07,2l.07,2.2c0,1,.66,1.55,1.85,1.55Z"/><path d="M101.25,7.89c-1.61,0-2.41-.72-2.41-2.17A2.05,2.05,0,0,1,99.48,4a3,3,0,0,1,1.77-.46,3,3,0,0,1,1.8.46,2.08,2.08,0,0,1,.64,1.75C103.69,7.17,102.88,7.89,101.25,7.89Zm-2.31,15.5V9.56a.47.47,0,0,1,.15-.37.52.52,0,0,1,.36-.14h3.78a.52.52,0,0,1,.36.14.44.44,0,0,1,.16.37V23.39a.5.5,0,0,1-.52.52H99.45a.48.48,0,0,1-.36-.14A.49.49,0,0,1,98.94,23.39Z"/><path d="M113,8.8q6.28,0,6.28,6.8v1.77q0,6.79-6.28,6.79t-6.28-6.79V15.6Q106.72,8.81,113,8.8Zm-1.46,5.52v4.33a1.49,1.49,0,0,0,.41,1.08,1.55,1.55,0,0,0,2.1,0,1.49,1.49,0,0,0,.41-1.08V14.32a1.46,1.46,0,0,0-.41-1.08,1.55,1.55,0,0,0-2.1,0A1.46,1.46,0,0,0,111.54,14.32Z"/><path class="cls-188" d="M49.85,30.57h3.58a.13.13,0,0,1,.12.05.16.16,0,0,1,.05.11v.56a.16.16,0,0,1-.05.11.17.17,0,0,1-.12.05H52.08v4.7a.13.13,0,0,1,0,.12.16.16,0,0,1-.11,0h-.56a.16.16,0,0,1-.11,0,.13.13,0,0,1,0-.12v-4.7H49.85a.17.17,0,0,1-.12-.05.16.16,0,0,1,0-.11v-.56a.16.16,0,0,1,0-.11A.13.13,0,0,1,49.85,30.57Z"/><path class="cls-188" d="M57.53,35.43H59.9a.16.16,0,0,1,.11,0,.13.13,0,0,1,.05.11v.56a.15.15,0,0,1,0,.11.14.14,0,0,1-.12.06H56.81a.14.14,0,0,1-.11-.06.13.13,0,0,1-.05-.11V30.73a.17.17,0,0,1,.16-.16H59.9a.17.17,0,0,1,.16.16v.56a.15.15,0,0,1,0,.11.17.17,0,0,1-.12.05H57.53v1.6h1.94a.17.17,0,0,1,.12.05.15.15,0,0,1,0,.11v.56a.15.15,0,0,1,0,.11.17.17,0,0,1-.12,0H57.53Z"/><path class="cls-188" d="M64.14,32.73v1.42a1.19,1.19,0,0,0,.45,1.05,1.79,1.79,0,0,0,1.08.32,4.58,4.58,0,0,0,1-.1.14.14,0,0,1,.13.09l.08.58a.12.12,0,0,1-.09.12,5.24,5.24,0,0,1-1.32.16,2.61,2.61,0,0,1-1-.16,1.61,1.61,0,0,1-1-.89,2.65,2.65,0,0,1-.19-.53,2.25,2.25,0,0,1,0-.44V32.54a2.28,2.28,0,0,1,0-.45,2.39,2.39,0,0,1,.19-.52,1.8,1.8,0,0,1,.37-.53,2.1,2.1,0,0,1,.65-.37,2.61,2.61,0,0,1,1-.16,5.24,5.24,0,0,1,1.32.16.12.12,0,0,1,.09.12l-.08.58a.14.14,0,0,1-.13.09,4.58,4.58,0,0,0-1-.1,1.86,1.86,0,0,0-1.08.32A1.19,1.19,0,0,0,64.14,32.73Z"/><path class="cls-188" d="M74.15,30.57a.15.15,0,0,1,.11,0,.13.13,0,0,1,0,.12v5.42a.13.13,0,0,1,0,.12.16.16,0,0,1-.11,0h-.56a.16.16,0,0,1-.11,0,.17.17,0,0,1,0-.12V34.23H71.05v1.92a.17.17,0,0,1,0,.12.21.21,0,0,1-.12,0h-.56a.18.18,0,0,1-.11,0,.17.17,0,0,1,0-.12V30.73a.21.21,0,0,1,0-.12.17.17,0,0,1,.11,0h.56a.19.19,0,0,1,.12,0,.17.17,0,0,1,0,.12v2.61h2.38V30.73a.21.21,0,0,1,0-.12.15.15,0,0,1,.11,0Z"/><path class="cls-188" d="M81.09,36.15l-2.56-3.94v3.94a.17.17,0,0,1,0,.12.21.21,0,0,1-.12,0H77.8a.18.18,0,0,1-.11,0,.17.17,0,0,1,0-.12V30.73a.21.21,0,0,1,0-.12.17.17,0,0,1,.11,0h.55c.08,0,.15.05.23.16l2.58,3.94V30.73a.21.21,0,0,1,0-.12.19.19,0,0,1,.12,0h.56a.15.15,0,0,1,.11,0,.17.17,0,0,1,0,.12v5.42a.17.17,0,0,1,0,.12.16.16,0,0,1-.11,0h-.56C81.25,36.32,81.17,36.26,81.09,36.15Z"/><path class="cls-188" d="M86.63,30.62a2.67,2.67,0,0,1,.78-.11,2.79,2.79,0,0,1,.79.11,2,2,0,0,1,.56.25,1.34,1.34,0,0,1,.38.37,1.9,1.9,0,0,1,.23.41,2.1,2.1,0,0,1,.12.42c0,.15,0,.27,0,.34s0,.16,0,.25v1.65a2.28,2.28,0,0,1,0,.27c0,.09,0,.22-.06.4a1.32,1.32,0,0,1-.19.49,3.42,3.42,0,0,1-.36.43,1.56,1.56,0,0,1-.61.35,3,3,0,0,1-.89.12,3,3,0,0,1-.89-.12,1.56,1.56,0,0,1-.61-.35,3.42,3.42,0,0,1-.36-.43,1.52,1.52,0,0,1-.19-.49c0-.18,0-.31-.06-.4a2.35,2.35,0,0,1,0-.27v-1.9c0-.07,0-.19,0-.34a2.1,2.1,0,0,1,.12-.42,1.61,1.61,0,0,1,.24-.41,1.3,1.3,0,0,1,.37-.37A2,2,0,0,1,86.63,30.62Zm.42,4.86a1.64,1.64,0,0,0,.72,0,2.1,2.1,0,0,0,.39-.17.89.89,0,0,0,.36-.4,1.53,1.53,0,0,0,.13-.68V32.65a1.53,1.53,0,0,0-.13-.68.89.89,0,0,0-.36-.4,2.1,2.1,0,0,0-.39-.17,1.64,1.64,0,0,0-.72,0,2.1,2.1,0,0,0-.39.17.82.82,0,0,0-.35.4,1.52,1.52,0,0,0-.14.68v1.58a1.52,1.52,0,0,0,.14.68.82.82,0,0,0,.35.4A2.1,2.1,0,0,0,87.05,35.48Z"/><path class="cls-188" d="M92.77,36.15V30.73a.17.17,0,0,1,.06-.12.15.15,0,0,1,.11,0h.56a.15.15,0,0,1,.11,0,.17.17,0,0,1,0,.12v4.7H96a.17.17,0,0,1,.12,0,.16.16,0,0,1,0,.11v.56a.16.16,0,0,1,0,.11.14.14,0,0,1-.12.06H92.94a.14.14,0,0,1-.12-.06A.16.16,0,0,1,92.77,36.15Z"/><path class="cls-188" d="M100.59,30.62a2.67,2.67,0,0,1,.78-.11,2.74,2.74,0,0,1,.79.11,2,2,0,0,1,.56.25,1.34,1.34,0,0,1,.38.37,1.9,1.9,0,0,1,.23.41,2.1,2.1,0,0,1,.12.42,1.85,1.85,0,0,1,0,.34,1.93,1.93,0,0,1,0,.25v1.65a2.28,2.28,0,0,1,0,.27,2,2,0,0,1-.06.4,1.17,1.17,0,0,1-.19.49,2.28,2.28,0,0,1-.36.43,1.56,1.56,0,0,1-.61.35,3,3,0,0,1-.89.12,3,3,0,0,1-.89-.12,1.44,1.44,0,0,1-.6-.35,2.28,2.28,0,0,1-.36-.43,1.17,1.17,0,0,1-.19-.49,3.8,3.8,0,0,1-.07-.4,2.35,2.35,0,0,1,0-.27v-1.9c0-.07,0-.19,0-.34a1.61,1.61,0,0,1,.11-.42,2,2,0,0,1,.24-.41,1.3,1.3,0,0,1,.37-.37A2.17,2.17,0,0,1,100.59,30.62Zm.42,4.86a1.64,1.64,0,0,0,.72,0,2.5,2.5,0,0,0,.4-.17.87.87,0,0,0,.35-.4,1.52,1.52,0,0,0,.14-.68V32.65a1.52,1.52,0,0,0-.14-.68.87.87,0,0,0-.35-.4,2.5,2.5,0,0,0-.4-.17,1.64,1.64,0,0,0-.72,0,2.1,2.1,0,0,0-.39.17.87.87,0,0,0-.35.4,1.52,1.52,0,0,0-.14.68v1.58a1.52,1.52,0,0,0,.14.68.87.87,0,0,0,.35.4A2.1,2.1,0,0,0,101,35.48Z"/><path class="cls-188" d="M110.58,33.17V36a.1.1,0,0,1-.06.1,4.75,4.75,0,0,1-1.8.28,2.49,2.49,0,0,1-1-.16,1.55,1.55,0,0,1-.61-.37,1.67,1.67,0,0,1-.34-.52,2.53,2.53,0,0,1-.15-.52c0-.15,0-.3,0-.45V32.54a2.28,2.28,0,0,1,0-.45,2,2,0,0,1,.19-.52,1.8,1.8,0,0,1,.37-.53,2,2,0,0,1,.65-.37,2.63,2.63,0,0,1,1-.16,5.22,5.22,0,0,1,1.31.16.12.12,0,0,1,.09.12l-.08.58a.13.13,0,0,1-.13.09,4.52,4.52,0,0,0-1-.1,1.81,1.81,0,0,0-1.07.32,1.17,1.17,0,0,0-.46,1v1.42c0,.92.43,1.37,1.27,1.37a2.9,2.9,0,0,0,.89-.1V33.9h-.57a.17.17,0,0,1-.12,0,.17.17,0,0,1,0-.12v-.56a.15.15,0,0,1,.16-.16h1.3a.16.16,0,0,1,.11.05A.14.14,0,0,1,110.58,33.17Z"/><path class="cls-188" d="M115.64,33.46,117,30.72a.21.21,0,0,1,.21-.15h.6a.15.15,0,0,1,.11,0,.13.13,0,0,1,.05.12l-1.84,3.9v1.52a.17.17,0,0,1-.17.17h-.55a.18.18,0,0,1-.12,0,.16.16,0,0,1,0-.12V34.63l-1.85-3.9a.21.21,0,0,1,0-.12.16.16,0,0,1,.12,0h.6a.25.25,0,0,1,.21.15Z"/></g></g></svg>